<svg width="20" height="20" viewBox="0 0 20 20" fill="none" xmlns="http://www.w3.org/2000/svg">
<g clip-path="url(#clip0_347_6129)">
<path d="M12.1113 4.99584L6.10135 11.2445C5.96542 11.382 5.88875 11.5707 5.88875 11.7677C5.88875 11.9647 5.96542 12.1534 6.10135 12.2909C6.23497 12.4298 6.41626 12.5079 6.60534 12.5081C6.79363 12.5038 6.9735 12.4263 7.10934 12.2909L13.1192 6.04223C13.2552 5.90473 13.3318 5.71606 13.3318 5.51903C13.3318 5.32201 13.2552 5.13334 13.1192 4.99584C12.8408 4.70715 12.3897 4.70715 12.1113 4.99584Z" fill="#E31B54"/>
<path d="M7.09983 8.86548C7.28851 8.86321 7.46906 8.78541 7.60383 8.64831L9.6103 6.56542C9.87215 6.2737 9.86442 5.81912 9.59282 5.53718C9.32122 5.25523 8.88332 5.24721 8.60231 5.51904L6.59584 7.60193C6.31773 7.89098 6.31773 8.35925 6.59584 8.64831C6.73167 8.78372 6.91155 8.86123 7.09983 8.86548Z" fill="#E31B54"/>
<path fill-rule="evenodd" clip-rule="evenodd" d="M19.1196 11.3729L17.5126 3.30781C17.2102 1.77987 15.9151 0.682877 14.4125 0.681987H4.85563C3.3352 0.65922 2.01383 1.76155 1.70804 3.30781L0.10096 11.3729C-0.175059 12.2599 0.127732 13.2307 0.852198 13.7815L8.3931 19.507C9.12103 20.0476 10.0996 20.0476 10.8275 19.507L18.3684 13.821C19.1095 13.2647 19.4142 12.2716 19.1196 11.3729ZM17.427 12.4291L9.88607 18.125C9.72011 18.2441 9.50048 18.2441 9.33453 18.125L1.79362 12.4291C1.62607 12.3082 1.55618 12.0865 1.62245 11.8862C1.6267 11.827 1.6267 11.7676 1.62245 11.7085L3.27708 3.64344C3.43306 2.87302 4.09754 2.32867 4.85563 2.35027H14.4601C15.2004 2.35241 15.8385 2.89143 15.9911 3.64344L17.5981 11.7085C17.5939 11.7676 17.5939 11.827 17.5981 11.8862C17.6644 12.0865 17.5945 12.3082 17.427 12.4291Z" fill="#E31B54"/>
</g>
<defs>
<clipPath id="clip0_347_6129">
<rect width="20" height="20" fill="white"/>
</clipPath>
</defs>
</svg>
