<svg width="40" height="40" viewBox="0 0 40 40" fill="none" xmlns="http://www.w3.org/2000/svg">
<path fill-rule="evenodd" clip-rule="evenodd" d="M10.7373 3.33789H29.2706C33.4925 3.48279 36.8016 7.01556 36.6706 11.2379V22.1046C36.7333 24.1438 35.9807 26.1239 34.5794 27.6066C33.178 29.0893 31.2434 29.9523 29.2039 30.0046H13.3373C12.2392 30.0273 11.198 30.4967 10.4539 31.3046L6.50392 35.5212C6.16928 35.8862 5.69905 36.0972 5.20392 36.1046C4.69256 36.0915 4.20761 35.8746 3.85703 35.5021C3.50644 35.1296 3.3193 34.6324 3.33726 34.1212V11.2379C3.2062 7.01556 6.51538 3.48279 10.7373 3.33789ZM29.2706 27.5046C32.1122 27.3608 34.3027 24.9467 34.1706 22.1046V11.2379C34.3027 8.39576 32.1122 5.98167 29.2706 5.83789H10.7373C7.89569 5.98167 5.70513 8.39576 5.83725 11.2379V32.5712L8.55392 29.6046C9.79629 28.283 11.5235 27.5247 13.3373 27.5046H29.2706Z" fill="#E31B54"/>
<path d="M13.7539 14.5879H22.0873C22.7776 14.5879 23.3373 14.0282 23.3373 13.3379C23.3373 12.6475 22.7776 12.0879 22.0873 12.0879H13.7539C13.0636 12.0879 12.5039 12.6475 12.5039 13.3379C12.5039 14.0282 13.0636 14.5879 13.7539 14.5879Z" fill="#E31B54"/>
<path d="M26.2539 18.7546H13.7539C13.0636 18.7546 12.5039 19.3142 12.5039 20.0046C12.5039 20.6949 13.0636 21.2546 13.7539 21.2546H26.2539C26.9443 21.2546 27.5039 20.6949 27.5039 20.0046C27.5039 19.3142 26.9443 18.7546 26.2539 18.7546Z" fill="#E31B54"/>
</svg>
