<svg width="20" height="20" viewBox="0 0 20 20" fill="none" xmlns="http://www.w3.org/2000/svg">
<path fill-rule="evenodd" clip-rule="evenodd" d="M5.36839 1.66602H14.6351C16.746 1.73847 18.4006 3.50485 18.3351 5.61602V11.0493C18.3664 12.069 17.9901 13.059 17.2894 13.8004C16.5887 14.5417 15.6215 14.9732 14.6017 14.9993H6.66839C6.11938 15.0107 5.59874 15.2454 5.22672 15.6493L3.25172 17.7577C3.08439 17.9402 2.84928 18.0457 2.60172 18.0493C2.34603 18.0428 2.10356 17.9344 1.92827 17.7481C1.75298 17.5619 1.65941 17.3133 1.66838 17.0577V5.61602C1.60286 3.50485 3.25744 1.73847 5.36839 1.66602ZM14.635 13.7493C16.0558 13.6775 17.1511 12.4704 17.085 11.0493V5.61602C17.1511 4.19495 16.0558 2.98791 14.635 2.91602H5.36838C3.9476 2.98791 2.85232 4.19495 2.91838 5.61602V16.2827L4.27672 14.7993C4.8979 14.1386 5.76152 13.7594 6.66838 13.7493H14.635Z" fill="#0C111D"/>
<path d="M6.87672 7.29102H11.0434C11.3886 7.29102 11.6684 7.01119 11.6684 6.66602C11.6684 6.32084 11.3886 6.04102 11.0434 6.04102H6.87672C6.53154 6.04102 6.25172 6.32084 6.25172 6.66602C6.25172 7.01119 6.53154 7.29102 6.87672 7.29102Z" fill="#0C111D"/>
<path d="M13.1267 9.37435H6.87672C6.53154 9.37435 6.25172 9.65417 6.25172 9.99935C6.25172 10.3445 6.53154 10.6243 6.87672 10.6243H13.1267C13.4719 10.6243 13.7517 10.3445 13.7517 9.99935C13.7517 9.65417 13.4719 9.37435 13.1267 9.37435Z" fill="#0C111D"/>
</svg>
