<svg width="20" height="20" viewBox="0 0 20 20" fill="none" xmlns="http://www.w3.org/2000/svg">
<path d="M7.20817 6.32435C6.96191 6.09488 6.57816 6.10165 6.34015 6.33966C6.10214 6.57767 6.09537 6.96142 6.32484 7.20768L9.47484 10.3577V14.266C9.47484 14.6112 9.75466 14.891 10.0998 14.891C10.445 14.891 10.7248 14.6112 10.7248 14.266V10.0993C10.7247 9.93364 10.6587 9.77478 10.5415 9.65768L7.20817 6.32435Z" fill="#E31B54"/>
<path fill-rule="evenodd" clip-rule="evenodd" d="M8.33317 1.66602H11.8665C13.6346 1.66602 15.3303 2.36839 16.5806 3.61864C17.8308 4.86888 18.5332 6.56457 18.5332 8.33268V11.866C18.5332 15.5479 15.5484 18.5327 11.8665 18.5327H8.33317C4.65127 18.5327 1.6665 15.5479 1.6665 11.866V8.33268C1.6665 4.65078 4.65127 1.66602 8.33317 1.66602ZM11.8665 17.2827C14.8561 17.2781 17.2786 14.8557 17.2832 11.866V8.33268C17.2786 5.34304 14.8561 2.9206 11.8665 2.91602H8.33317C5.34353 2.9206 2.92109 5.34304 2.9165 8.33268V11.866C2.92109 14.8557 5.34353 17.2781 8.33317 17.2827H11.8665Z" fill="#E31B54"/>
</svg>
