<svg width="20" height="20" viewBox="0 0 20 20" fill="none" xmlns="http://www.w3.org/2000/svg">
<path d="M7.20866 6.32435C6.9624 6.09488 6.57865 6.10165 6.34064 6.33966C6.10263 6.57767 6.09586 6.96142 6.32533 7.20768L9.47533 10.3577V14.266C9.47533 14.6112 9.75515 14.891 10.1003 14.891C10.4455 14.891 10.7253 14.6112 10.7253 14.266V10.0993C10.7252 9.93364 10.6592 9.77478 10.542 9.65768L7.20866 6.32435Z" fill="#344054"/>
<path fill-rule="evenodd" clip-rule="evenodd" d="M8.33366 1.66602H11.867C13.6351 1.66602 15.3308 2.36839 16.581 3.61864C17.8313 4.86888 18.5337 6.56457 18.5337 8.33268V11.866C18.5337 15.5479 15.5489 18.5327 11.867 18.5327H8.33366C4.65176 18.5327 1.66699 15.5479 1.66699 11.866V8.33268C1.66699 4.65078 4.65176 1.66602 8.33366 1.66602ZM11.867 17.2827C14.8566 17.2781 17.2791 14.8557 17.2837 11.866V8.33268C17.2791 5.34304 14.8566 2.9206 11.867 2.91602H8.33366C5.34402 2.9206 2.92158 5.34304 2.91699 8.33268V11.866C2.92158 14.8557 5.34402 17.2781 8.33366 17.2827H11.867Z" fill="#344054"/>
</svg>
