<svg width="20" height="20" viewBox="0 0 20 20" fill="none" xmlns="http://www.w3.org/2000/svg">
<path d="M13.1571 6.7915H9.06545C8.75249 6.7915 8.49879 6.5378 8.49879 6.22484C8.49879 5.91188 8.75249 5.65817 9.06545 5.65817H13.1571C13.4701 5.65817 13.7238 5.91188 13.7238 6.22484C13.7238 6.5378 13.4701 6.7915 13.1571 6.7915Z" fill="#344054"/>
<path d="M9.09045 10.5498H12.0071C12.3201 10.5498 12.5738 10.8035 12.5738 11.1165C12.5738 11.4295 12.3201 11.6832 12.0071 11.6832H9.09045C8.77749 11.6832 8.52379 11.4295 8.52379 11.1165C8.52379 10.8035 8.77749 10.5498 9.09045 10.5498Z" fill="#344054"/>
<path d="M14.3238 8.09984H9.06545C8.84505 8.07316 8.62897 8.17575 8.51033 8.36341C8.3917 8.55107 8.3917 8.79027 8.51033 8.97793C8.62897 9.16559 8.84505 9.26818 9.06545 9.2415H14.3238C14.6125 9.20655 14.8297 8.96151 14.8297 8.67067C14.8297 8.37983 14.6125 8.13479 14.3238 8.09984Z" fill="#344054"/>
<path fill-rule="evenodd" clip-rule="evenodd" d="M9.99045 1.6665H13.3905C15.5766 1.6665 17.3488 3.43871 17.3488 5.62484V11.7248C17.3641 13.3829 16.3423 14.874 14.7905 15.4582C14.6307 17.1777 13.1841 18.4906 11.4571 18.4832H7.29045C5.10433 18.4832 3.33212 16.711 3.33212 14.5248V7.67484C3.31987 5.97942 4.58224 4.54492 6.26545 4.3415C6.81152 2.74812 8.30612 1.67482 9.99045 1.6665ZM7.25712 17.1998H11.4238C12.3553 17.2005 13.1731 16.5803 13.4238 15.6832H9.99045C7.80433 15.6832 6.03212 13.911 6.03212 11.7248V5.65817C5.15408 5.91937 4.55123 6.72544 4.54879 7.6415V14.4915C4.54879 15.9873 5.76135 17.1998 7.25712 17.1998ZM16.0988 11.7248C16.0988 13.2206 14.8862 14.4332 13.3905 14.4332H9.99045C8.49658 14.4286 7.2867 13.2187 7.28212 11.7248V5.62484C7.2867 4.13097 8.49658 2.92108 9.99045 2.9165H13.3905C14.8862 2.9165 16.0988 4.12907 16.0988 5.62484V11.7248Z" fill="#344054"/>
</svg>
