<svg width="20" height="20" viewBox="0 0 20 20" fill="none" xmlns="http://www.w3.org/2000/svg">
<path fill-rule="evenodd" clip-rule="evenodd" d="M3.9115 2.34961H7.47314C8.5345 2.34961 9.39489 3.18908 9.39489 4.22461V6.03294C9.39489 7.06848 8.5345 7.90794 7.47314 7.90794H3.9115C2.85014 7.90794 1.98975 7.06848 1.98975 6.03294V4.22461C1.98975 3.18908 2.85014 2.34961 3.9115 2.34961ZM7.47314 6.65794C7.825 6.65346 8.10913 6.37625 8.11373 6.03294V4.22461C8.10913 3.88131 7.825 3.6041 7.47314 3.59961H3.9115C3.55964 3.6041 3.27551 3.88131 3.27091 4.22461V6.03294C3.27551 6.37625 3.55964 6.65346 3.9115 6.65794H7.47314Z" fill="#0C111D"/>
<path fill-rule="evenodd" clip-rule="evenodd" d="M13.5971 2.34961H16.5865C17.6478 2.34961 18.5082 3.18908 18.5082 4.22461V9.91628C18.5082 10.9518 17.6478 11.7913 16.5865 11.7913H13.5971C13.0867 11.7935 12.5966 11.5967 12.2357 11.2446C11.8748 10.8924 11.6731 10.4142 11.6754 9.91628V4.22461C11.6754 3.18908 12.5358 2.34961 13.5971 2.34961ZM16.5865 10.5413C16.9403 10.5413 17.2271 10.2615 17.2271 9.91628V4.22461C17.2225 3.88131 16.9384 3.6041 16.5865 3.59961H13.5971C13.2433 3.59961 12.9565 3.87943 12.9565 4.22461V9.91628C12.9542 10.0827 13.0209 10.243 13.1416 10.3607C13.2622 10.4784 13.4265 10.5435 13.5971 10.5413H16.5865Z" fill="#0C111D"/>
<path fill-rule="evenodd" clip-rule="evenodd" d="M13.5971 14.0163H16.5865C17.6479 14.0163 18.5083 14.8557 18.5083 15.8913V17.1413C18.5083 18.1768 17.6479 19.0163 16.5865 19.0163H13.5971C12.5358 19.0163 11.6754 18.1768 11.6754 17.1413V15.8913C11.6754 14.8557 12.5358 14.0163 13.5971 14.0163ZM16.5865 17.7663C16.9384 17.7618 17.2225 17.4846 17.2271 17.1413V15.8913C17.2225 15.548 16.9384 15.2708 16.5865 15.2663H13.5971C13.2433 15.2663 12.9565 15.5461 12.9565 15.8913V17.1413C12.9565 17.4865 13.2433 17.7663 13.5971 17.7663H16.5865Z" fill="#0C111D"/>
<path fill-rule="evenodd" clip-rule="evenodd" d="M3.9115 10.1246H7.47314C8.5345 10.1246 9.39489 10.9641 9.39489 11.9996V17.1413C9.39489 18.1768 8.5345 19.0163 7.47314 19.0163H3.9115C2.85014 19.0163 1.98975 18.1768 1.98975 17.1413V11.9996C1.98975 10.9641 2.85014 10.1246 3.9115 10.1246ZM7.47314 17.7663C7.825 17.7618 8.10913 17.4846 8.11373 17.1413V11.9996C8.10913 11.6563 7.825 11.3791 7.47314 11.3746H3.9115C3.55964 11.3791 3.27551 11.6563 3.27091 11.9996V17.1413C3.27551 17.4846 3.55964 17.7618 3.9115 17.7663H7.47314Z" fill="#0C111D"/>
<path fill-rule="evenodd" clip-rule="evenodd" d="M3.9115 2.34961H7.47314C8.5345 2.34961 9.39489 3.18908 9.39489 4.22461V6.03294C9.39489 7.06848 8.5345 7.90794 7.47314 7.90794H3.9115C2.85014 7.90794 1.98975 7.06848 1.98975 6.03294V4.22461C1.98975 3.18908 2.85014 2.34961 3.9115 2.34961ZM7.47314 6.65794C7.825 6.65346 8.10913 6.37625 8.11373 6.03294V4.22461C8.10913 3.88131 7.825 3.6041 7.47314 3.59961H3.9115C3.55964 3.6041 3.27551 3.88131 3.27091 4.22461V6.03294C3.27551 6.37625 3.55964 6.65346 3.9115 6.65794H7.47314Z" stroke="#0C111D" stroke-width="0.634187"/>
<path fill-rule="evenodd" clip-rule="evenodd" d="M13.5971 2.34961H16.5865C17.6478 2.34961 18.5082 3.18908 18.5082 4.22461V9.91628C18.5082 10.9518 17.6478 11.7913 16.5865 11.7913H13.5971C13.0867 11.7935 12.5966 11.5967 12.2357 11.2446C11.8748 10.8924 11.6731 10.4142 11.6754 9.91628V4.22461C11.6754 3.18908 12.5358 2.34961 13.5971 2.34961ZM16.5865 10.5413C16.9403 10.5413 17.2271 10.2615 17.2271 9.91628V4.22461C17.2225 3.88131 16.9384 3.6041 16.5865 3.59961H13.5971C13.2433 3.59961 12.9565 3.87943 12.9565 4.22461V9.91628C12.9542 10.0827 13.0209 10.243 13.1416 10.3607C13.2622 10.4784 13.4265 10.5435 13.5971 10.5413H16.5865Z" stroke="#0C111D" stroke-width="0.634187"/>
<path fill-rule="evenodd" clip-rule="evenodd" d="M13.5971 14.0163H16.5865C17.6479 14.0163 18.5083 14.8557 18.5083 15.8913V17.1413C18.5083 18.1768 17.6479 19.0163 16.5865 19.0163H13.5971C12.5358 19.0163 11.6754 18.1768 11.6754 17.1413V15.8913C11.6754 14.8557 12.5358 14.0163 13.5971 14.0163ZM16.5865 17.7663C16.9384 17.7618 17.2225 17.4846 17.2271 17.1413V15.8913C17.2225 15.548 16.9384 15.2708 16.5865 15.2663H13.5971C13.2433 15.2663 12.9565 15.5461 12.9565 15.8913V17.1413C12.9565 17.4865 13.2433 17.7663 13.5971 17.7663H16.5865Z" stroke="#0C111D" stroke-width="0.634187"/>
<path fill-rule="evenodd" clip-rule="evenodd" d="M3.9115 10.1246H7.47314C8.5345 10.1246 9.39489 10.9641 9.39489 11.9996V17.1413C9.39489 18.1768 8.5345 19.0163 7.47314 19.0163H3.9115C2.85014 19.0163 1.98975 18.1768 1.98975 17.1413V11.9996C1.98975 10.9641 2.85014 10.1246 3.9115 10.1246ZM7.47314 17.7663C7.825 17.7618 8.10913 17.4846 8.11373 17.1413V11.9996C8.10913 11.6563 7.825 11.3791 7.47314 11.3746H3.9115C3.55964 11.3791 3.27551 11.6563 3.27091 11.9996V17.1413C3.27551 17.4846 3.55964 17.7618 3.9115 17.7663H7.47314Z" stroke="#0C111D" stroke-width="0.634187"/>
</svg>
