<svg width="17" height="16" viewBox="0 0 17 16" fill="none" xmlns="http://www.w3.org/2000/svg">
<g clip-path="url(#clip0_1_8424)">
<path d="M0.830876 10.7833C1.96122 13.8296 4.89356 16.0007 8.33328 16.0007C11.773 16.0007 14.7053 13.8296 15.8357 10.7833L8.33328 10.0876L0.830876 10.7833Z" fill="#FFDA44"/>
<path d="M8.33328 0.000488281C4.89356 0.000488281 1.96122 2.17149 0.830876 5.2179L8.33328 5.91352L15.8357 5.21786C14.7053 2.17149 11.773 0.000488281 8.33328 0.000488281Z" fill="black"/>
<path d="M0.830967 5.21729C0.509404 6.08394 0.333373 7.02132 0.333373 7.99988C0.333373 8.97844 0.509404 9.91582 0.830967 10.7825H15.8358C16.1574 9.91582 16.3334 8.97844 16.3334 7.99988C16.3334 7.02132 16.1574 6.08394 15.8358 5.21729H0.830967Z" fill="#D80027"/>
</g>
<defs>
<clipPath id="clip0_1_8424">
<rect width="16" height="16" fill="white" transform="translate(0.333344)"/>
</clipPath>
</defs>
</svg>
