<svg width="20" height="20" viewBox="0 0 20 20" fill="none" xmlns="http://www.w3.org/2000/svg">
<path fill-rule="evenodd" clip-rule="evenodd" d="M5.47467 9.51657C5.9857 9.7449 6.40532 10.1381 6.66634 10.6332L8.86634 14.6416C9.03102 14.9397 9.11437 15.276 9.10801 15.6166L9.06634 17.2832C9.06498 17.6272 8.88091 17.9446 8.58301 18.1166C8.44697 18.1885 8.29524 18.2258 8.14134 18.2249C7.95587 18.2241 7.77421 18.1722 7.61634 18.0749L6.21634 17.2416C5.92549 17.062 5.68697 16.8091 5.52467 16.5082L3.33301 12.4999C3.05688 11.9879 2.96285 11.3973 3.06634 10.8249C3.12997 10.2845 3.43684 9.8027 3.89967 9.51657C4.39563 9.2696 4.97872 9.2696 5.47467 9.51657ZM6.85801 16.1332L7.82467 16.7166L7.81634 15.5666C7.81351 15.4443 7.78212 15.3245 7.72467 15.2166L5.53301 11.2082C5.40548 10.9559 5.1972 10.7535 4.94134 10.6332C4.85587 10.5906 4.76186 10.5678 4.66634 10.5666C4.59666 10.5672 4.52813 10.5844 4.46634 10.6166C4.32819 10.7091 4.23935 10.8593 4.22467 11.0249C4.18659 11.3135 4.2452 11.6065 4.39134 11.8582L6.58301 15.8332C6.64207 15.9588 6.738 16.0635 6.85801 16.1332Z" fill="#344054"/>
<path fill-rule="evenodd" clip-rule="evenodd" d="M11.0163 1.95824L16.8496 7.79157C16.9732 7.91472 17.0396 8.08391 17.0329 8.25824V14.0916C17.0329 15.1414 16.6159 16.1482 15.8736 16.8905C15.1312 17.6329 14.1244 18.0499 13.0746 18.0499H10.6829C10.3377 18.0499 10.0579 17.7701 10.0579 17.4249C10.0579 17.0797 10.3377 16.7999 10.6829 16.7999H13.0746C14.5685 16.7953 15.7784 15.5854 15.7829 14.0916V8.88324H12.2413C10.9775 8.87866 9.95417 7.85532 9.94959 6.59157V3.0499H8.07459C6.57882 3.0499 5.36626 4.26246 5.36626 5.75824V7.96657C5.36626 8.31175 5.08644 8.59157 4.74126 8.59157C4.39608 8.59157 4.11626 8.31175 4.11626 7.96657V5.75824C4.1096 4.7041 4.5237 3.69084 5.26675 2.9431C6.00981 2.19535 7.02043 1.77488 8.07459 1.7749H10.5746C10.7403 1.77505 10.8992 1.84099 11.0163 1.95824ZM11.1996 3.90824V6.59157C11.1996 7.16687 11.666 7.63324 12.2413 7.63324H14.9246L11.1996 3.90824Z" fill="#344054"/>
</svg>
