<svg width="40" height="40" viewBox="0 0 40 40" fill="none" xmlns="http://www.w3.org/2000/svg">
<path d="M13.3165 15.8879H24.4832C25.1047 15.8153 25.5734 15.2887 25.5734 14.6629C25.5734 14.0371 25.1047 13.5105 24.4832 13.4379H13.3165C12.8447 13.3828 12.3832 13.6035 12.13 14.0053C11.8767 14.4071 11.8767 14.9187 12.13 15.3205C12.3832 15.7223 12.8447 15.943 13.3165 15.8879Z" fill="black"/>
<path d="M13.3165 29.2212H21.2832C21.7549 29.2763 22.2164 29.0557 22.4697 28.6538C22.7229 28.252 22.7229 27.7404 22.4697 27.3386C22.2164 26.9368 21.7549 26.7161 21.2832 26.7712H13.3165C12.8447 26.7161 12.3832 26.9368 12.13 27.3386C11.8767 27.7404 11.8767 28.252 12.13 28.6538C12.3832 29.0557 12.8447 29.2763 13.3165 29.2212Z" fill="black"/>
<path d="M27.6665 22.5546H13.3165C12.8447 22.6097 12.3832 22.389 12.13 21.9872C11.8767 21.5853 11.8767 21.0738 12.13 20.672C12.3832 20.2701 12.8447 20.0494 13.3165 20.1046H27.6665C28.2881 20.1772 28.7567 20.7038 28.7567 21.3296C28.7567 21.9553 28.2881 22.4819 27.6665 22.5546Z" fill="black"/>
<path fill-rule="evenodd" clip-rule="evenodd" d="M26.3165 37.6546H14.6498C10.2381 37.6454 6.66649 34.0663 6.6665 29.6546V11.3212C6.67567 6.91595 10.2446 3.34706 14.6498 3.33789H26.3165C30.7283 3.33788 34.3073 6.90946 34.3165 11.3212V29.6546C34.3165 31.7763 33.4736 33.8111 31.9734 35.3114C30.4731 36.8117 28.4382 37.6546 26.3165 37.6546ZM14.6498 5.98789C11.7081 5.99704 9.32565 8.3795 9.3165 11.3212V29.6546C9.31649 32.6028 11.7016 34.9954 14.6498 35.0046H26.3165C29.2712 35.0046 31.6665 32.6093 31.6665 29.6546V11.3212C31.6573 8.37301 29.2647 5.98788 26.3165 5.98789H14.6498Z" fill="black"/>
</svg>
