<svg width="20" height="20" viewBox="0 0 20 20" fill="none" xmlns="http://www.w3.org/2000/svg">
<path fill-rule="evenodd" clip-rule="evenodd" d="M5.47516 9.51706C5.98619 9.74539 6.40581 10.1386 6.66683 10.6337L8.86683 14.6421C9.03151 14.9402 9.11486 15.2765 9.10849 15.6171L9.06683 17.2837C9.06546 17.6277 8.8814 17.9451 8.58349 18.1171C8.44746 18.189 8.29573 18.2262 8.14183 18.2254C7.95636 18.2246 7.7747 18.1727 7.61683 18.0754L6.21683 17.2421C5.92598 17.0625 5.68746 16.8096 5.52516 16.5087L3.33349 12.5004C3.05737 11.9884 2.96334 11.3978 3.06683 10.8254C3.13045 10.285 3.43733 9.80319 3.90016 9.51706C4.39612 9.27009 4.9792 9.27009 5.47516 9.51706ZM6.85849 16.1337L7.82516 16.7171L7.81683 15.5671C7.814 15.4448 7.78261 15.325 7.72516 15.2171L5.53349 11.2087C5.40597 10.9564 5.19769 10.754 4.94183 10.6337C4.85636 10.591 4.76235 10.5683 4.66683 10.5671C4.59715 10.5677 4.52862 10.5848 4.46683 10.6171C4.32868 10.7096 4.23984 10.8597 4.22516 11.0254C4.18708 11.314 4.24569 11.607 4.39183 11.8587L6.58349 15.8337C6.64256 15.9593 6.73848 16.064 6.85849 16.1337Z" fill="#E31B54"/>
<path fill-rule="evenodd" clip-rule="evenodd" d="M11.0167 1.95872L16.8501 7.79206C16.9736 7.91521 17.0401 8.0844 17.0334 8.25872V14.0921C17.0334 15.1419 16.6164 16.1487 15.874 16.891C15.1317 17.6334 14.1249 18.0504 13.0751 18.0504H10.6834C10.3382 18.0504 10.0584 17.7706 10.0584 17.4254C10.0584 17.0802 10.3382 16.8004 10.6834 16.8004H13.0751C14.569 16.7958 15.7788 15.5859 15.7834 14.0921V8.88372H12.2417C10.978 8.87915 9.95465 7.85581 9.95008 6.59206V3.05039H8.07508C6.57931 3.05039 5.36675 4.26295 5.36675 5.75872V7.96706C5.36675 8.31223 5.08693 8.59206 4.74175 8.59206C4.39657 8.59206 4.11675 8.31223 4.11675 7.96706V5.75872C4.11009 4.70458 4.52419 3.69133 5.26724 2.94358C6.0103 2.19584 7.02092 1.77537 8.07508 1.77539H10.5751C10.7408 1.77554 10.8997 1.84148 11.0167 1.95872ZM11.2001 3.90872V6.59206C11.2001 7.16735 11.6665 7.63372 12.2417 7.63372H14.9251L11.2001 3.90872Z" fill="#E31B54"/>
</svg>
