<svg width="20" height="20" viewBox="0 0 20 20" fill="none" xmlns="http://www.w3.org/2000/svg">
<path fill-rule="evenodd" clip-rule="evenodd" d="M6.49161 12.7251L7.09994 9.88344C7.18851 9.48854 7.38799 9.12715 7.67494 8.84177L13.2333 3.33344C13.7969 2.75925 14.5622 2.42742 15.3666 2.40844C15.9733 2.39974 16.5583 2.63375 16.9916 3.05844C17.9384 4.17716 17.8162 5.84779 16.7166 6.81677L11.1583 12.3751C10.8729 12.6621 10.5115 12.8615 10.1166 12.9501L7.27494 13.5584H7.11661C6.90886 13.5664 6.71045 13.4719 6.58571 13.3056C6.46097 13.1393 6.4258 12.9223 6.49161 12.7251ZM8.55827 9.73344C8.44151 9.84659 8.3604 9.99143 8.32494 10.1501L7.91661 12.0918L9.85827 11.6751C10.017 11.6396 10.1618 11.5585 10.2749 11.4418L15.8333 5.88344C16.4422 5.39596 16.563 4.51717 16.1083 3.88344C15.9092 3.69319 15.6419 3.59108 15.3666 3.6001C14.8921 3.61916 14.4437 3.82244 14.1166 4.16677L8.55827 9.73344Z" fill="#E31B54"/>
<path d="M16.5916 9.10844C16.2483 9.11293 15.9711 9.39014 15.9666 9.73344V14.4751C15.9778 15.1453 15.7193 15.792 15.2493 16.2699C14.7792 16.7478 14.1369 17.0169 13.4666 17.0168H5.52494C4.13942 16.9896 3.02921 15.8609 3.02494 14.4751V6.56677C3.04769 5.17934 4.179 4.06658 5.56661 4.06677H10.3083C10.6535 4.06677 10.9333 3.78695 10.9333 3.44177C10.9333 3.09659 10.6535 2.81677 10.3083 2.81677H5.52494C3.44703 2.81664 1.75611 4.48898 1.73328 6.56677V14.4751C1.73328 16.5692 3.43086 18.2668 5.52494 18.2668H13.4333C15.5241 18.2622 17.2166 16.5659 17.2166 14.4751V9.73344C17.2121 9.39014 16.9349 9.11293 16.5916 9.10844Z" fill="#E31B54"/>
</svg>
