<svg width="226" height="180" viewBox="0 0 226 180" fill="none" xmlns="http://www.w3.org/2000/svg">
<path fill-rule="evenodd" clip-rule="evenodd" d="M57.2 120.6H139.1C139.563 120.6 140.015 120.55 140.45 120.455C140.885 120.55 141.337 120.6 141.8 120.6H188.6C192.079 120.6 194.9 117.779 194.9 114.3C194.9 110.82 192.079 108 188.6 108H183.2C179.721 108 176.9 105.179 176.9 101.7C176.9 98.2202 179.721 95.3996 183.2 95.3996H200.3C203.779 95.3996 206.6 92.579 206.6 89.0996C206.6 85.6202 203.779 82.7996 200.3 82.7996H180.5C183.979 82.7996 186.8 79.979 186.8 76.4996C186.8 73.0202 183.979 70.1996 180.5 70.1996H122.9C126.379 70.1996 129.2 67.379 129.2 63.8996C129.2 60.4202 126.379 57.5996 122.9 57.5996H71.6C68.1206 57.5996 65.3 60.4202 65.3 63.8996C65.3 67.379 68.1206 70.1996 71.6 70.1996H35.6C32.1206 70.1996 29.3 73.0202 29.3 76.4996C29.3 79.979 32.1206 82.7996 35.6 82.7996H58.1C61.5794 82.7996 64.4 85.6202 64.4 89.0996C64.4 92.579 61.5794 95.3996 58.1 95.3996H22.1C18.6206 95.3996 15.8 98.2202 15.8 101.7C15.8 105.179 18.6206 108 22.1 108H57.2C53.7206 108 50.9 110.82 50.9 114.3C50.9 117.779 53.7206 120.6 57.2 120.6ZM203.9 120.6C207.379 120.6 210.2 117.779 210.2 114.3C210.2 110.82 207.379 108 203.9 108C200.421 108 197.6 110.82 197.6 114.3C197.6 117.779 200.421 120.6 203.9 120.6Z" fill="#F3F7FF"/>
<path fill-rule="evenodd" clip-rule="evenodd" d="M83.3 126.001C72.3648 126.001 63.5 117.337 63.5 106.651C63.5 95.9641 72.3648 87.3008 83.3 87.3008C83.765 87.3008 84.2263 87.3164 84.6833 87.3473C84.3657 85.5798 84.2 83.7596 84.2 81.9008C84.2 65.0009 97.9001 51.3008 114.8 51.3008C128.292 51.3008 139.744 60.0326 143.815 72.1533C144.779 72.0525 145.758 72.0008 146.75 72.0008C161.91 72.0008 174.2 84.0891 174.2 99.0008C174.2 113.167 163.108 124.855 149 125.981V126.001H98.157M94.0964 126.001H87.8282H94.0964Z" fill="white"/>
<path d="M83.3 127.251C83.9904 127.251 84.55 126.691 84.55 126.001C84.55 125.31 83.9904 124.751 83.3 124.751V127.251ZM84.6833 87.3473L84.5992 88.5944L86.1967 88.7022L85.9136 87.1262L84.6833 87.3473ZM143.815 72.1533L142.63 72.5513L142.949 73.5007L143.945 73.3966L143.815 72.1533ZM149 125.981L148.901 124.735L147.75 124.827V125.981H149ZM149 126.001V127.251H150.25V126.001H149ZM98.157 124.751C97.4667 124.751 96.907 125.31 96.907 126.001C96.907 126.691 97.4667 127.251 98.157 127.251V124.751ZM94.0964 127.251C94.7867 127.251 95.3464 126.691 95.3464 126.001C95.3464 125.31 94.7867 124.751 94.0964 124.751V127.251ZM87.8282 124.751C87.1379 124.751 86.5782 125.31 86.5782 126.001C86.5782 126.691 87.1379 127.251 87.8282 127.251V124.751ZM83.3 124.751C73.0279 124.751 64.75 116.62 64.75 106.651H62.25C62.25 118.055 71.7017 127.251 83.3 127.251V124.751ZM64.75 106.651C64.75 96.6814 73.0279 88.5508 83.3 88.5508V86.0508C71.7017 86.0508 62.25 95.2468 62.25 106.651H64.75ZM83.3 88.5508C83.7369 88.5508 84.1701 88.5655 84.5992 88.5944L84.7674 86.1001C84.2824 86.0674 83.7931 86.0508 83.3 86.0508V88.5508ZM85.9136 87.1262C85.6091 85.4314 85.45 83.6852 85.45 81.9008H82.95C82.95 83.8341 83.1224 85.7282 83.453 87.5683L85.9136 87.1262ZM85.45 81.9008C85.45 65.6912 98.5904 52.5508 114.8 52.5508V50.0508C97.2097 50.0508 82.95 64.3105 82.95 81.9008H85.45ZM114.8 52.5508C127.739 52.5508 138.725 60.9242 142.63 72.5513L145 71.7554C140.764 59.141 128.845 50.0508 114.8 50.0508V52.5508ZM143.945 73.3966C144.866 73.3002 145.802 73.2508 146.75 73.2508V70.7508C145.715 70.7508 144.692 70.8048 143.685 70.9101L143.945 73.3966ZM146.75 73.2508C161.239 73.2508 172.95 84.7988 172.95 99.0008H175.45C175.45 83.3793 162.581 70.7508 146.75 70.7508V73.2508ZM172.95 99.0008C172.95 112.497 162.377 123.66 148.901 124.735L149.099 127.227C163.838 126.051 175.45 113.837 175.45 99.0008H172.95ZM147.75 125.981V126.001H150.25V125.981H147.75ZM149 124.751H98.157V127.251H149V124.751ZM94.0964 124.751H87.8282V127.251H94.0964V124.751Z" fill="#F63D68"/>
<path fill-rule="evenodd" clip-rule="evenodd" d="M105.453 57.9076C105.453 86.9084 131.571 110.805 165.202 114.032C160.987 119.214 154.479 122.73 147.064 123.282V123.299H86.6703C79.3428 123.299 67.1016 120.212 67.1016 106.693C67.1016 93.1735 76.6183 90.0862 86.6703 90.0862C87.0978 90.0862 87.5218 90.0997 87.9419 90.1261C87.65 88.6093 87.5987 87.0458 87.4976 85.4519C86.815 74.685 91.5122 61.1155 105.469 56.6992C105.458 57.1018 105.453 57.5042 105.453 57.9076Z" fill="#FFF5F6"/>
<path d="M123.794 62.0996C129.652 63.6499 134.278 68.2312 135.891 74.0635" stroke="#FD6F8E" stroke-width="2.5" stroke-linecap="round"/>
<path d="M97.6969 91.3492C97.6969 94.5801 100.517 97.1992 103.997 97.1992C107.476 97.1992 110.297 94.5801 110.297 91.3492" stroke="#F63D68" stroke-width="2.5" stroke-linecap="round"/>
<path d="M123.798 91.3492C123.798 94.5801 126.619 97.1992 130.098 97.1992C133.578 97.1992 136.398 94.5801 136.398 91.3492" stroke="#F63D68" stroke-width="2.5" stroke-linecap="round"/>
<path d="M110.297 108H123.347" stroke="#F63D68" stroke-width="2.5" stroke-linecap="round"/>
<path fill-rule="evenodd" clip-rule="evenodd" d="M62.7444 54.2637H51.993V56.4021H59.5962L51.3594 66.3813V68.4009H62.9424V66.2625H54.5076L62.7444 56.1447V54.2637ZM74.8113 68.0195H66.9921V69.5747H72.5217L66.5312 76.8323V78.3011H74.9552V76.7459H68.8209L74.8113 69.3875V68.0195Z" fill="#FD6F8E"/>
</svg>
