<svg width="20" height="21" viewBox="0 0 20 21" fill="none" xmlns="http://www.w3.org/2000/svg">
<path fill-rule="evenodd" clip-rule="evenodd" d="M3.22656 3.18164H6.14323C7.17876 3.18164 8.01823 4.02111 8.01823 5.05664V7.97331C8.01823 9.00884 7.17876 9.84831 6.14323 9.84831H3.22656C2.19103 9.84831 1.35156 9.00884 1.35156 7.97331V5.05664C1.35156 4.02111 2.19103 3.18164 3.22656 3.18164ZM6.14323 8.59831C6.48841 8.59831 6.76823 8.31849 6.76823 7.97331V5.05664C6.76823 4.71146 6.48841 4.43164 6.14323 4.43164H3.22656C2.88326 4.43613 2.60605 4.71334 2.60156 5.05664V7.97331C2.60605 8.31661 2.88326 8.59382 3.22656 8.59831H6.14323Z" fill="#0C111D"/>
<path d="M11.3516 6.30664H15.5182C15.8634 6.30664 16.1432 6.02682 16.1432 5.68164C16.1432 5.33646 15.8634 5.05664 15.5182 5.05664H11.3516C11.0064 5.05664 10.7266 5.33646 10.7266 5.68164C10.7266 6.02682 11.0064 6.30664 11.3516 6.30664Z" fill="#0C111D"/>
<path d="M11.3516 8.80664H18.0182C18.3634 8.80664 18.6432 8.52682 18.6432 8.18164C18.6432 7.83646 18.3634 7.55664 18.0182 7.55664H11.3516C11.0064 7.55664 10.7266 7.83646 10.7266 8.18164C10.7266 8.52682 11.0064 8.80664 11.3516 8.80664Z" fill="#0C111D"/>
<path fill-rule="evenodd" clip-rule="evenodd" d="M3.22656 11.515H6.14323C7.17876 11.515 8.01823 12.3544 8.01823 13.39V16.3066C8.01823 16.8039 7.82068 17.2808 7.46905 17.6325C7.11742 17.9841 6.64051 18.1816 6.14323 18.1816H3.22656C2.19103 18.1816 1.35156 17.3422 1.35156 16.3066V13.39C1.35156 12.3544 2.19103 11.515 3.22656 11.515ZM6.14323 16.9316C6.48841 16.9316 6.76823 16.6518 6.76823 16.3066V13.39C6.76823 13.0448 6.48841 12.765 6.14323 12.765H3.22656C2.88326 12.7695 2.60605 13.0467 2.60156 13.39V16.3066C2.60605 16.6499 2.88326 16.9272 3.22656 16.9316H6.14323Z" fill="#0C111D"/>
<path d="M11.3516 14.64H15.5182C15.8634 14.64 16.1432 14.3602 16.1432 14.015C16.1432 13.6698 15.8634 13.39 15.5182 13.39H11.3516C11.0064 13.39 10.7266 13.6698 10.7266 14.015C10.7266 14.3602 11.0064 14.64 11.3516 14.64Z" fill="#0C111D"/>
<path d="M18.0182 15.89H11.3516C11.0064 15.89 10.7266 16.1698 10.7266 16.515C10.7266 16.8602 11.0064 17.14 11.3516 17.14H18.0182C18.3634 17.14 18.6432 16.8602 18.6432 16.515C18.6432 16.1698 18.3634 15.89 18.0182 15.89Z" fill="#0C111D"/>
</svg>
