<svg width="40" height="40" viewBox="0 0 40 40" fill="none" xmlns="http://www.w3.org/2000/svg">
<path d="M34.0667 5.76667C33.8688 5.30606 33.4179 5.00548 32.9167 5H24.5833C23.893 5 23.3333 5.55964 23.3333 6.25C23.3333 6.94036 23.893 7.5 24.5833 7.5H29.9L20.3667 17.0333C19.8792 17.5214 19.8792 18.312 20.3667 18.8C20.8547 19.2874 21.6453 19.2874 22.1333 18.8L31.6667 9.26667V14.5833C31.6667 15.2737 32.2263 15.8333 32.9167 15.8333C33.607 15.8333 34.1667 15.2737 34.1667 14.5833V6.25C34.1658 6.08384 34.1318 5.91953 34.0667 5.76667Z" fill="black"/>
<path d="M29.5833 18.3333C28.8967 18.3423 28.3423 18.8967 28.3333 19.5833V26.25C28.3242 29.2377 25.9044 31.6575 22.9167 31.6667H12.9167C9.92892 31.6575 7.50915 29.2377 7.5 26.25V16.25C7.50915 13.2623 9.92892 10.8425 12.9167 10.8333H19.5833C20.2737 10.8333 20.8333 10.2737 20.8333 9.58333C20.8333 8.89298 20.2737 8.33333 19.5833 8.33333H12.9167C8.54441 8.33333 5 11.8777 5 16.25V26.25C5 30.6223 8.54441 34.1667 12.9167 34.1667H22.9167C27.2889 34.1667 30.8333 30.6223 30.8333 26.25V19.5833C30.8244 18.8967 30.2699 18.3423 29.5833 18.3333Z" fill="black"/>
</svg>
