<svg width="20" height="20" viewBox="0 0 20 20" fill="none" xmlns="http://www.w3.org/2000/svg">
<path d="M12.9833 10.0009C12.9833 11.6509 11.6499 12.9842 9.99993 12.9842C8.34993 12.9842 7.0166 11.6509 7.0166 10.0009C7.0166 8.35091 8.34993 7.01758 9.99993 7.01758C11.6499 7.01758 12.9833 8.35091 12.9833 10.0009Z" stroke="#667085" stroke-width="1.5" stroke-linecap="round" stroke-linejoin="round"/>
<path d="M10.0001 16.8913C12.9418 16.8913 15.6834 15.1579 17.5918 12.1579C18.3418 10.9829 18.3418 9.00794 17.5918 7.83294C15.6834 4.83294 12.9418 3.09961 10.0001 3.09961C7.05845 3.09961 4.31678 4.83294 2.40845 7.83294C1.65845 9.00794 1.65845 10.9829 2.40845 12.1579C4.31678 15.1579 7.05845 16.8913 10.0001 16.8913Z" stroke="#667085" stroke-width="1.5" stroke-linecap="round" stroke-linejoin="round"/>
</svg>
