<svg width="20" height="20" viewBox="0 0 20 20" fill="none" xmlns="http://www.w3.org/2000/svg">
<path fill-rule="evenodd" clip-rule="evenodd" d="M11.4743 8.84827C12.2251 8.83023 12.8958 8.37423 13.1886 7.68271C13.2511 7.70906 13.3179 7.72359 13.3857 7.72556H16.8143C17.1693 7.72556 17.4571 7.43778 17.4571 7.08279C17.4571 6.7278 17.1693 6.44002 16.8143 6.44002H13.4286C13.3916 6.43517 13.3541 6.43517 13.3171 6.44002C13.0716 5.47552 12.1269 4.86086 11.1455 5.02708C10.1641 5.19331 9.47458 6.08478 9.56047 7.07631C9.64636 8.06785 10.4789 8.82751 11.4743 8.82256V8.84827ZM11.4743 6.32004C11.8199 6.32004 12.1 6.60014 12.1 6.94567C12.1 7.29119 11.8199 7.5713 11.4743 7.5713C11.1287 7.5713 10.8486 7.29119 10.8486 6.94567C10.8486 6.60014 11.1287 6.32004 11.4743 6.32004Z" fill="#E31B54"/>
<path d="M3.14286 6.44002H8.28572C8.64076 6.44002 8.92857 6.7278 8.92857 7.08279C8.92857 7.43778 8.64076 7.72556 8.28572 7.72556H3.14286C2.78782 7.72556 2.5 7.43778 2.5 7.08279C2.5 6.7278 2.78782 6.44002 3.14286 6.44002Z" fill="#E31B54"/>
<path fill-rule="evenodd" clip-rule="evenodd" d="M4.78 13.2962C5.04848 12.537 5.76599 12.0289 6.57143 12.0278V12.0107C7.5407 12.0095 8.35746 12.7338 8.47192 13.6962C8.58638 14.6585 7.96231 15.5542 7.01978 15.7803C6.07726 16.0064 5.11468 15.4913 4.78 14.5818H3.14286C2.78782 14.5818 2.5 14.294 2.5 13.939C2.5 13.584 2.78782 13.2962 3.14286 13.2962H4.78ZM5.94675 13.9841C5.95264 14.325 6.23044 14.5984 6.57143 14.5989V14.5646C6.917 14.5646 7.19714 14.2845 7.19714 13.939C7.17846 13.5986 6.89059 13.3358 6.54982 13.3481C6.20905 13.3604 5.94086 13.6432 5.94675 13.9841Z" fill="#E31B54"/>
<path d="M10 13.2962H16.8571C17.2122 13.2962 17.5 13.584 17.5 13.939C17.5 14.294 17.2122 14.5818 16.8571 14.5818H10C9.64496 14.5818 9.35714 14.294 9.35714 13.939C9.35714 13.584 9.64496 13.2962 10 13.2962Z" fill="#E31B54"/>
</svg>
