<svg width="40" height="40" viewBox="0 0 40 40" fill="none" xmlns="http://www.w3.org/2000/svg">
<path d="M19.9996 10.0002C11.7829 10.0002 5.34961 13.3336 5.34961 17.7169C5.34961 21.8002 10.9329 25.0336 18.3329 25.4669L15.8496 27.9336C15.3622 28.4216 15.3622 29.2122 15.8496 29.7002C16.3433 30.1896 17.1392 30.1896 17.6329 29.7002L22.1829 25.1502C22.6704 24.6622 22.6704 23.8716 22.1829 23.3836L17.6329 18.8336C17.1356 18.3531 16.347 18.3531 15.8496 18.8336C15.3622 19.3216 15.3622 20.1122 15.8496 20.6002L18.2163 22.9502C12.0329 22.5336 7.84961 20.0002 7.84961 17.7169C7.84961 15.4336 12.8496 12.4336 19.9996 12.4336C27.1496 12.4336 32.1496 15.2169 32.1496 17.7169C32.1496 19.3836 30.0329 21.0502 26.7496 22.0669C26.0869 22.2694 25.7138 22.9708 25.9163 23.6336C26.1188 24.2963 26.8202 24.6694 27.4829 24.4669C31.9663 23.0836 34.6496 20.5669 34.6496 17.8002C34.6496 13.3336 28.2163 10.0002 19.9996 10.0002Z" fill="#E31B54"/>
</svg>
