<svg width="20" height="20" viewBox="0 0 20 20" fill="none" xmlns="http://www.w3.org/2000/svg">
<path fill-rule="evenodd" clip-rule="evenodd" d="M2.6116 7.61234C3.85247 4.62326 6.77209 2.6763 10.0085 2.67969C12.1294 2.67969 14.1634 3.5228 15.6623 5.02331C17.1612 6.52382 18.0022 8.55865 18 10.6796C18 13.916 16.05 16.8336 13.0596 18.0713C10.0692 19.309 6.62767 18.6231 4.34038 16.3334C2.05309 14.0437 1.37072 10.6014 2.6116 7.61234ZM16.2809 13.1114C16.5737 12.3343 16.7215 11.51 16.717 10.6796C16.7358 9.1523 16.2329 7.66431 15.2914 6.46161C14.9141 7.09053 14.2013 8.02972 13.3208 8.02972C12.9821 8.00248 12.6412 8.03657 12.3145 8.13035V8.22259C12.3145 8.37353 12.7254 8.78442 12.9435 9.00245C13.4865 9.40735 13.848 10.0099 13.9497 10.6796C13.9497 12.0213 14.0839 12.4322 14.2013 12.5328C14.9262 12.5847 15.6334 12.7814 16.2809 13.1114ZM3.3 10.6796C3.29238 9.18781 3.78219 7.73607 4.69201 6.55385C4.92962 6.9872 5.38867 7.25229 5.88277 7.24147C6.56129 7.58359 7.16104 8.06339 7.64375 8.65025C7.28859 8.86864 6.96664 9.13692 6.68779 9.44689C6.66191 9.47181 6.63373 9.49926 6.60387 9.52833C6.37253 9.7536 6.04066 10.0768 5.89954 10.0842C5.51131 10.0725 5.13546 10.2215 4.86081 10.4962C4.58616 10.7708 4.43709 11.1467 4.44883 11.5349C4.45004 11.631 4.47297 11.7256 4.51592 11.8116L5.27062 13.321C5.28025 14.1892 5.41873 15.0512 5.68152 15.8787C4.15179 14.5877 3.27845 12.6811 3.3 10.6796ZM7.71923 16.9856C8.45308 17.2519 9.2278 17.3881 10.0085 17.3881V17.4132C12.3164 17.4287 14.4702 16.2568 15.7107 14.3105C15.2049 14.0656 14.6649 13.8988 14.1091 13.8158C12.6584 13.8158 12.6584 11.7362 12.6584 10.7299C12.6584 10.5779 12.2845 10.2047 12.0535 9.97408C12.0423 9.96292 12.0315 9.95209 12.0211 9.94164C11.4819 9.53462 11.1237 8.93255 11.0232 8.26452C11.0232 6.8138 12.499 6.8138 13.2873 6.8138C13.5053 6.80542 14.0252 6.18488 14.3439 5.56435C11.8573 3.45944 8.21791 3.44529 5.71506 5.5308C5.72776 5.60292 5.72776 5.67671 5.71506 5.74883C5.72345 5.95008 5.81569 5.95008 5.90793 5.95008C6.91421 5.95008 9.16994 7.99618 9.20348 8.95214C9.20482 9.16771 9.1139 9.37357 8.95366 9.51778C8.79342 9.66199 8.57916 9.7308 8.36492 9.70684C8.21398 9.71523 7.80308 10.1261 7.58506 10.3442C7.17713 10.8838 6.57604 11.2444 5.90793 11.3504C5.84085 11.3504 5.74022 11.3504 5.74022 11.4343L6.46977 12.8347C6.51271 12.9207 6.53565 13.0153 6.53685 13.1114C6.53685 14.0254 6.73811 15.5097 7.17416 15.9541C7.4784 16.2177 7.67286 16.5857 7.71923 16.9856Z" fill="#0C111D"/>
</svg>
