<svg width="20" height="20" viewBox="0 0 20 20" fill="none" xmlns="http://www.w3.org/2000/svg">
<path d="M14.017 12.9035C13.7129 12.7507 13.3425 12.8692 13.1837 13.1702C13.0369 13.4767 13.1582 13.8445 13.4587 14.0035C14.192 14.3785 14.6087 14.8368 14.6087 15.2785C14.6087 16.2202 12.642 17.2702 10.0087 17.2702C7.37533 17.2702 5.40033 16.2285 5.40033 15.3118C5.40033 14.8785 5.81699 14.4118 6.55033 14.0368C6.77024 13.9487 6.92139 13.7437 6.94065 13.5075C6.95992 13.2714 6.84399 13.0447 6.64127 12.922C6.43856 12.7993 6.18391 12.8019 5.98366 12.9285C4.97191 13.3098 4.26656 14.2352 4.16699 15.3118C4.16699 17.1618 6.66699 18.5535 10.0003 18.5535C13.3337 18.5535 15.8337 17.1618 15.8337 15.3118C15.7433 14.2259 15.0364 13.2887 14.017 12.9035Z" fill="#344054"/>
<path fill-rule="evenodd" clip-rule="evenodd" d="M9.37533 15.6785V12.0785C6.63107 11.7479 4.6191 9.33709 4.78471 6.57795C4.95033 3.81882 7.23622 1.66602 10.0003 1.66602C12.7644 1.66602 15.0503 3.81882 15.2159 6.57795C15.3816 9.33709 13.3696 11.7479 10.6253 12.0785V15.6785C10.6253 16.0237 10.3455 16.3035 10.0003 16.3035C9.65515 16.3035 9.37533 16.0237 9.37533 15.6785ZM13.6872 5.36696C13.0685 3.87773 11.6129 2.90846 10.0003 2.91183C7.8069 2.91642 6.02991 4.6934 6.02533 6.88683C6.02196 8.49945 6.99123 9.955 8.48045 10.5737C9.96968 11.1924 11.685 10.8521 12.8253 9.7118C13.9656 8.5715 14.3059 6.85618 13.6872 5.36696Z" fill="#344054"/>
<path d="M7.99199 7.81183C8.33717 7.81183 8.61699 7.53201 8.61699 7.18683C8.61699 6.22954 9.39303 5.4535 10.3503 5.4535C10.6955 5.4535 10.9753 5.17368 10.9753 4.8285C10.9753 4.48332 10.6955 4.2035 10.3503 4.2035C9.55689 4.20571 8.79682 4.52302 8.23734 5.08563C7.67785 5.64824 7.36478 6.41006 7.36699 7.2035C7.36919 7.36706 7.43627 7.52304 7.55349 7.63713C7.6707 7.75121 7.82844 7.81406 7.99199 7.81183Z" fill="#344054"/>
</svg>
