<svg width="20" height="20" viewBox="0 0 20 20" fill="none" xmlns="http://www.w3.org/2000/svg">
<path d="M14.0165 12.9035C13.7124 12.7507 13.342 12.8692 13.1832 13.1702C13.0364 13.4767 13.1577 13.8445 13.4582 14.0035C14.1915 14.3785 14.6082 14.8368 14.6082 15.2785C14.6082 16.2202 12.6415 17.2702 10.0082 17.2702C7.37484 17.2702 5.39984 16.2285 5.39984 15.3118C5.39984 14.8785 5.8165 14.4118 6.54984 14.0368C6.76975 13.9487 6.9209 13.7437 6.94017 13.5075C6.95943 13.2714 6.8435 13.0447 6.64079 12.922C6.43807 12.7993 6.18342 12.8019 5.98317 12.9285C4.97142 13.3098 4.26607 14.2352 4.1665 15.3118C4.1665 17.1618 6.6665 18.5535 9.99984 18.5535C13.3332 18.5535 15.8332 17.1618 15.8332 15.3118C15.7428 14.2259 15.0359 13.2887 14.0165 12.9035Z" fill="#E31B54"/>
<path fill-rule="evenodd" clip-rule="evenodd" d="M9.37484 15.6785V12.0785C6.63058 11.7479 4.61861 9.33709 4.78422 6.57795C4.94984 3.81882 7.23574 1.66602 9.99984 1.66602C12.7639 1.66602 15.0498 3.81882 15.2154 6.57795C15.3811 9.33709 13.3691 11.7479 10.6248 12.0785V15.6785C10.6248 16.0237 10.345 16.3035 9.99984 16.3035C9.65466 16.3035 9.37484 16.0237 9.37484 15.6785ZM13.6867 5.36696C13.068 3.87773 11.6125 2.90846 9.99984 2.91183C7.80641 2.91642 6.02942 4.6934 6.02484 6.88683C6.02147 8.49945 6.99074 9.955 8.47996 10.5737C9.96919 11.1924 11.6845 10.8521 12.8248 9.7118C13.9651 8.5715 14.3054 6.85618 13.6867 5.36696Z" fill="#E31B54"/>
<path d="M7.99151 7.81183C8.33668 7.81183 8.61651 7.53201 8.61651 7.18683C8.61651 6.22954 9.39254 5.4535 10.3498 5.4535C10.695 5.4535 10.9748 5.17368 10.9748 4.8285C10.9748 4.48332 10.695 4.2035 10.3498 4.2035C9.5564 4.20571 8.79633 4.52302 8.23685 5.08563C7.67736 5.64824 7.36429 6.41006 7.36651 7.2035C7.3687 7.36706 7.43579 7.52304 7.553 7.63713C7.67021 7.75121 7.82795 7.81406 7.99151 7.81183Z" fill="#E31B54"/>
</svg>
