<svg width="40" height="40" viewBox="0 0 40 40" fill="none" xmlns="http://www.w3.org/2000/svg">
<path d="M28.034 25.8085C27.4259 25.5029 26.685 25.74 26.3673 26.3418C26.0737 26.9549 26.3164 27.6905 26.9173 28.0085C28.384 28.7585 29.2173 29.6751 29.2173 30.5585C29.2173 32.4418 25.284 34.5418 20.0173 34.5418C14.7507 34.5418 10.8007 32.4585 10.8007 30.6251C10.8007 29.7585 11.634 28.8251 13.1007 28.0751C13.5405 27.8988 13.8428 27.4889 13.8813 27.0166C13.9198 26.5443 13.688 26.0908 13.2825 25.8455C12.8771 25.6001 12.3678 25.6052 11.9673 25.8585C9.94381 26.6211 8.53311 28.4719 8.33398 30.6251C8.33398 34.3251 13.334 37.1085 20.0007 37.1085C26.6673 37.1085 31.6673 34.3251 31.6673 30.6251C31.4866 28.4532 30.0727 26.5789 28.034 25.8085Z" fill="#E31B54"/>
<path fill-rule="evenodd" clip-rule="evenodd" d="M18.7507 31.3585V24.1585C13.2621 23.4972 9.2382 18.6756 9.56943 13.1574C9.90066 7.6391 14.4724 3.3335 20.0007 3.3335C25.5289 3.3335 30.1006 7.6391 30.4319 13.1574C30.7631 18.6756 26.7392 23.4972 21.2507 24.1585V31.3585C21.2507 32.0488 20.691 32.6085 20.0007 32.6085C19.3103 32.6085 18.7507 32.0488 18.7507 31.3585ZM27.3744 10.7354C26.137 7.75693 23.2259 5.81839 20.0007 5.82513C15.6138 5.8343 12.0598 9.38827 12.0507 13.7751C12.0439 17.0004 13.9825 19.9115 16.9609 21.1488C19.9394 22.3862 23.37 21.7057 25.6506 19.4251C27.9312 17.1445 28.6117 13.7138 27.3744 10.7354Z" fill="#E31B54"/>
<path d="M15.984 15.6251C16.6743 15.6251 17.234 15.0655 17.234 14.3751C17.234 12.4605 18.7861 10.9085 20.7007 10.9085C21.391 10.9085 21.9507 10.3488 21.9507 9.65847C21.9507 8.96811 21.391 8.40847 20.7007 8.40847C19.1138 8.41288 17.5936 9.0475 16.4747 10.1727C15.3557 11.2979 14.7296 12.8216 14.734 14.4085C14.7384 14.7356 14.8725 15.0475 15.107 15.2757C15.3414 15.5039 15.6569 15.6296 15.984 15.6251Z" fill="#E31B54"/>
</svg>
