<svg width="40" height="40" viewBox="0 0 40 40" fill="none" xmlns="http://www.w3.org/2000/svg">
<path fill-rule="evenodd" clip-rule="evenodd" d="M9.68221 3.33337H30.3171C33.8237 3.33337 36.6663 6.17601 36.6663 9.68258V30.3175C36.6663 33.8241 33.8237 36.6667 30.3171 36.6667H9.68221C6.17564 36.6667 3.33301 33.8241 3.33301 30.3175V9.68258C3.33301 6.17601 6.17564 3.33337 9.68221 3.33337ZM30.3171 34.2858C32.5087 34.2858 34.2854 32.5091 34.2854 30.3175V9.68258C34.2854 7.49097 32.5087 5.71433 30.3171 5.71433H9.68221C7.49061 5.71433 5.71396 7.49097 5.71396 9.68258V30.3175C5.71396 32.5091 7.49061 34.2858 9.68221 34.2858H30.3171Z" fill="#0C111D"/>
<path d="M28.7298 14.8413H23.9679C23.3104 14.8413 22.7775 15.3743 22.7775 16.0318C22.7775 16.6893 23.3104 17.2223 23.9679 17.2223H25.4441L19.7933 22.8731L16.6187 19.6985C15.7763 18.8589 14.4135 18.8589 13.5711 19.6985L9.42825 23.7143C8.96404 24.1791 8.96404 24.9321 9.42825 25.3969C9.65029 25.6217 9.95354 25.7476 10.2695 25.7461C10.5859 25.7494 10.8898 25.6232 11.1108 25.3969L15.0314 21.4762L18.206 24.6508C19.0539 25.4922 20.4217 25.4922 21.2695 24.6508L27.4759 18.4445V20.7937C27.4759 21.4512 28.0089 21.9842 28.6663 21.9842C29.3238 21.9842 29.8568 21.4512 29.8568 20.7937V16.0318C29.8499 15.4015 29.3588 14.8827 28.7298 14.8413Z" fill="#0C111D"/>
</svg>
