<svg width="40" height="40" viewBox="0 0 40 40" fill="none" xmlns="http://www.w3.org/2000/svg">
<path fill-rule="evenodd" clip-rule="evenodd" d="M29.9998 12.5C29.9998 14.8011 28.1343 16.6666 25.8331 16.6666C23.532 16.6666 21.6665 14.8011 21.6665 12.5V10.1666C21.6665 8.23363 23.2335 6.66663 25.1665 6.66663H26.4998C28.4328 6.66663 29.9998 8.23363 29.9998 10.1666V12.5ZM25.1665 9.16663C24.6142 9.16663 24.1665 9.61434 24.1665 10.1666V12.5C24.1665 13.4204 24.9127 14.1666 25.8331 14.1666C26.7536 14.1666 27.4998 13.4204 27.4998 12.5V10.1666C27.4998 9.61434 27.0521 9.16663 26.4998 9.16663H25.1665Z" fill="black"/>
<path fill-rule="evenodd" clip-rule="evenodd" d="M33.3331 20.7833L33.4664 21.6666C35.2551 21.7382 36.6678 23.2098 36.6664 24.9999V29.9999C36.6664 31.8409 35.174 33.3333 33.3331 33.3333H6.66641C4.82546 33.3333 3.33308 31.8409 3.33308 29.9999V24.9999C3.32584 23.8853 3.87623 22.8408 4.79974 22.2166C4.64094 21.8803 4.53953 21.5197 4.49974 21.1499L4.18308 17.9499C4.0936 17.0124 4.40488 16.0808 5.03996 15.3854C5.67504 14.69 6.57465 14.2957 7.51641 14.2999C7.92738 14.3031 8.33422 14.3822 8.71641 14.5333L10.8831 15.3666C11.8407 15.7334 12.6496 16.4074 13.1831 17.2833L14.2997 19.0833C14.7736 19.8564 14.912 20.7892 14.6831 21.6666H17.7164L17.8997 20.7833C18.3015 18.6682 20.1306 17.1243 22.2831 17.0833H28.9497C31.1022 17.1243 32.9313 18.6682 33.3331 20.7833ZM22.3664 19.5999C21.4125 19.6376 20.6108 20.3286 20.4331 21.2666L20.3497 21.7166H30.9497V21.2666C30.797 20.3211 29.9906 19.6199 29.0331 19.5999H22.3664ZM6.91641 17.0833C7.0673 16.9082 7.28533 16.8052 7.51641 16.7999C7.61504 16.7765 7.71778 16.7765 7.81641 16.7999L9.98308 17.6333C10.4312 17.801 10.8119 18.1114 11.0664 18.5166L12.1664 20.3333C12.3276 20.5816 12.3276 20.9016 12.1664 21.1499C12.0323 21.4115 11.7603 21.5734 11.4664 21.5666H7.84974C7.43225 21.5613 7.08315 21.2478 7.03308 20.8333L6.66641 17.6999C6.65843 17.4682 6.74932 17.244 6.91641 17.0833ZM33.3331 30.8333C33.7933 30.8333 34.1664 30.4602 34.1664 29.9999V24.9999C34.1664 24.5397 33.7933 24.1666 33.3331 24.1666H6.66641C6.20617 24.1666 5.83308 24.5397 5.83308 24.9999V29.9999C5.83308 30.4602 6.20617 30.8333 6.66641 30.8333H33.3331Z" fill="black"/>
</svg>
