<svg width="20" height="20" viewBox="0 0 20 20" fill="none" xmlns="http://www.w3.org/2000/svg">
<path fill-rule="evenodd" clip-rule="evenodd" d="M16.0219 7.27499C16.1806 7.66177 16.5568 7.9148 16.9748 7.91602C17.5423 7.92059 17.9999 8.38189 17.9998 8.94935V10.7327C17.9998 11.3034 17.5372 11.766 16.9665 11.766C16.5484 11.7672 16.1723 12.0203 16.0135 12.407C15.8548 12.7938 15.9448 13.2381 16.2415 13.5327C16.6395 13.9406 16.6395 14.5915 16.2415 14.9993L14.9915 16.2493C14.5836 16.6474 13.9327 16.6474 13.5248 16.2493C13.3367 16.05 13.0739 15.9383 12.7998 15.941C12.5243 15.9388 12.2594 16.0467 12.0638 16.2407C11.8682 16.4347 11.7582 16.6988 11.7582 16.9743C11.7582 17.545 11.2955 18.0077 10.7248 18.0077H8.9415C8.37081 18.0077 7.90817 17.545 7.90817 16.9743C7.90818 16.6988 7.79817 16.4347 7.60257 16.2407C7.40698 16.0467 7.142 15.9388 6.8665 15.941C6.59243 15.9383 6.32964 16.05 6.1415 16.2493C5.73363 16.6474 5.08271 16.6474 4.67484 16.2493L3.42484 14.9993C3.02681 14.5915 3.02681 13.9406 3.42484 13.5327C3.72154 13.2381 3.81152 12.7938 3.6528 12.407C3.49407 12.0203 3.11792 11.7672 2.69984 11.766C2.42578 11.766 2.16295 11.6571 1.96916 11.4634C1.77537 11.2696 1.6665 11.0067 1.6665 10.7327V8.94935C1.6665 8.37865 2.12914 7.91602 2.69984 7.91602C3.11792 7.9148 3.49407 7.66177 3.6528 7.27499C3.81152 6.88821 3.72154 6.4439 3.42484 6.14935C3.02681 5.74147 3.02681 5.09056 3.42484 4.68268L4.67484 3.43268C5.08271 3.03466 5.73363 3.03466 6.1415 3.43268C6.32964 3.63201 6.59243 3.74377 6.8665 3.74102C7.14345 3.74326 7.40971 3.63423 7.60555 3.43839C7.80139 3.24255 7.91041 2.9763 7.90817 2.69935C7.90817 2.12865 8.37081 1.66602 8.9415 1.66602H10.7332C11.3039 1.66602 11.7665 2.12865 11.7665 2.69935C11.7643 2.9763 11.8733 3.24255 12.0691 3.43839C12.265 3.63423 12.5312 3.74326 12.8082 3.74102C13.0822 3.74377 13.345 3.63201 13.5332 3.43268C13.941 3.03466 14.592 3.03466 14.9998 3.43268L16.2498 4.68268C16.6479 5.09056 16.6479 5.74147 16.2498 6.14935C15.9531 6.4439 15.8631 6.88821 16.0219 7.27499ZM14.8332 11.9243C15.1585 11.1312 15.9034 10.5894 16.7582 10.5243L16.7332 9.15768C15.8877 9.08354 15.1544 8.54327 14.8332 7.75768C14.5185 6.97025 14.6626 6.07353 15.2082 5.42435L14.2498 4.46602C13.8434 4.80636 13.3299 4.99229 12.7998 4.99102C11.6189 4.98812 10.632 4.09131 10.5165 2.91602H9.14984C9.03804 4.09318 8.04896 4.99201 6.8665 4.99102C6.33642 4.99229 5.8229 4.80636 5.4165 4.46602L4.48317 5.42435C5.02028 6.07848 5.15472 6.97475 4.83317 7.75768C4.5119 8.54327 3.77867 9.08354 2.93317 9.15768V10.5243C3.77867 10.5985 4.5119 11.1388 4.83317 11.9243C5.14787 12.7118 5.00375 13.6085 4.45817 14.2577L5.4165 15.216C5.8229 14.8757 6.33642 14.6897 6.8665 14.691C8.04746 14.6939 9.03431 15.5907 9.14984 16.766H10.5165C10.6207 15.5851 11.6143 14.6821 12.7998 14.691C13.3299 14.6897 13.8434 14.8757 14.2498 15.216L15.1832 14.2577C14.6461 13.6035 14.5116 12.7073 14.8332 11.9243Z" fill="#0C111D"/>
<path fill-rule="evenodd" clip-rule="evenodd" d="M6.94984 9.84102C6.94984 8.24859 8.24075 6.95768 9.83317 6.95768C10.5979 6.95768 11.3313 7.26146 11.872 7.80219C12.4127 8.34292 12.7165 9.07631 12.7165 9.84102C12.7165 11.4334 11.4256 12.7243 9.83317 12.7243C8.24075 12.7243 6.94984 11.4334 6.94984 9.84102ZM8.1665 9.84101C8.1665 10.7615 8.9127 11.5077 9.83317 11.5077C10.7536 11.5077 11.4998 10.7615 11.4998 9.84101C11.4998 8.92054 10.7536 8.17435 9.83317 8.17435C8.9127 8.17435 8.1665 8.92054 8.1665 9.84101Z" fill="#0C111D"/>
</svg>
