<svg width="20" height="20" viewBox="0 0 20 20" fill="none" xmlns="http://www.w3.org/2000/svg">
<path fill-rule="evenodd" clip-rule="evenodd" d="M12.4607 12.6919C12.837 12.6929 13.2058 12.7966 13.5274 12.9919H13.519C14.4887 13.5702 14.818 14.8177 14.2601 15.7992C13.7022 16.7808 12.4619 17.1362 11.4689 16.599C10.4758 16.0619 10.0945 14.8293 10.6107 13.8252L8.16905 11.3335C7.99274 11.4409 7.80189 11.5223 7.60238 11.5752C7.43625 11.6178 7.26556 11.6402 7.09405 11.6419C6.03678 11.6472 5.14314 10.8598 5.01541 9.81024C4.88768 8.7607 5.56636 7.78191 6.59405 7.53352C6.75769 7.49361 6.92562 7.47402 7.09405 7.47519C7.52411 7.47552 7.94344 7.60948 8.29405 7.85852L10.6107 5.54186C10.2656 4.89696 10.287 4.11766 10.6671 3.49272C11.0472 2.86779 11.7293 2.49032 12.4607 2.50019C12.8362 2.49829 13.2051 2.59916 13.5274 2.79186C14.1824 3.1521 14.5954 3.83441 14.6109 4.58176C14.6264 5.32912 14.2421 6.02798 13.6026 6.4151C12.9631 6.80221 12.1657 6.81877 11.5107 6.45852L9.06072 8.90852C9.08791 8.96771 9.11021 9.02903 9.12738 9.09186C9.23809 9.54039 9.19404 10.0132 9.00238 10.4335L11.5024 12.9335C11.7984 12.7788 12.1267 12.696 12.4607 12.6919ZM12.4607 3.75019C12.1682 3.74849 11.8962 3.9003 11.744 4.15019C11.6304 4.34069 11.5974 4.56862 11.6524 4.78352C11.7005 4.99809 11.8366 5.18256 12.0274 5.29186C12.1552 5.3711 12.302 5.4143 12.4524 5.41686C12.7466 5.4168 13.019 5.26161 13.169 5.00852C13.4051 4.61488 13.2785 4.10443 12.8857 3.86686C12.7581 3.78809 12.6106 3.7476 12.4607 3.75019ZM7.09405 10.3919C6.7018 10.4033 6.35473 10.1395 6.26072 9.75852C6.20825 9.54252 6.24425 9.31451 6.36072 9.12519C6.47438 8.93832 6.65696 8.80364 6.86905 8.75019H7.06905C7.4613 8.73876 7.80837 9.00254 7.90238 9.38352C7.95503 9.59581 7.92211 9.82029 7.81072 10.0085L7.76072 10.0669C7.65017 10.225 7.48818 10.3398 7.30238 10.3919H7.09405ZM12.4524 15.5669C12.7449 15.5686 13.0169 15.4167 13.169 15.1669C13.3778 14.7826 13.2541 14.3024 12.8857 14.0669C12.7579 13.9876 12.6111 13.9444 12.4607 13.9419C12.1665 13.9419 11.8941 14.0971 11.744 14.3502C11.5079 14.7438 11.6346 15.2543 12.0274 15.4919C12.1592 15.5562 12.3065 15.5821 12.4524 15.5669Z" fill="#344054"/>
</svg>
