<svg width="20" height="20" viewBox="0 0 20 20" fill="none" xmlns="http://www.w3.org/2000/svg">
<path d="M15.5786 1.66602H12.404C12.0283 1.66602 11.7237 1.97058 11.7237 2.34629C11.7237 2.72199 12.0283 3.02656 12.404 3.02656H15.5786C16.2048 3.02656 16.7124 3.53417 16.7124 4.16035V7.33495C16.7124 7.71065 17.0169 8.01522 17.3926 8.01522C17.7683 8.01522 18.0729 7.71065 18.0729 7.33495V4.16035C18.0729 2.78277 16.9562 1.66602 15.5786 1.66602Z" fill="#0C111D"/>
<path d="M3.90058 16.9721H7.07519C7.45089 16.9721 7.75546 17.2767 7.75546 17.6524C7.75546 18.0281 7.45089 18.3327 7.07519 18.3327H3.90058C2.523 18.3327 1.40625 17.2159 1.40625 15.8384V12.6637C1.40625 12.4207 1.53591 12.1961 1.74639 12.0746C1.95686 11.9531 2.21618 11.9531 2.42666 12.0746C2.63714 12.1961 2.76679 12.4207 2.76679 12.6637V15.8384C2.76679 16.4645 3.27441 16.9721 3.90058 16.9721Z" fill="#0C111D"/>
<path d="M16.7124 12.6647C16.7124 12.2885 17.0169 11.9835 17.3926 11.9835C17.7648 11.9834 18.068 12.2829 18.0729 12.6556V15.8348C18.0729 17.2143 16.9562 18.3327 15.5786 18.3327H12.404C12.0283 18.3327 11.7237 18.0277 11.7237 17.6514C11.7237 17.2752 12.0283 16.9702 12.404 16.9702H15.5786C16.2048 16.9702 16.7124 16.4619 16.7124 15.8348V12.6647Z" fill="#0C111D"/>
<path d="M3.90058 1.66602H7.07519C7.45089 1.66602 7.75546 1.97058 7.75546 2.34629C7.75546 2.72199 7.45089 3.02656 7.07519 3.02656H3.90058C3.27441 3.02656 2.76679 3.53417 2.76679 4.16035V7.33495C2.76679 7.71065 2.46223 8.01522 2.08652 8.01522C1.71082 8.01522 1.40625 7.71065 1.40625 7.33495V4.16035C1.40625 2.78277 2.523 1.66602 3.90058 1.66602Z" fill="#0C111D"/>
</svg>
