<svg width="20" height="20" viewBox="0 0 20 20" fill="none" xmlns="http://www.w3.org/2000/svg">
<path fill-rule="evenodd" clip-rule="evenodd" d="M18.1166 12.2836L18.2333 12.8586C18.3603 13.3498 18.2567 13.8721 17.9517 14.2776C17.6468 14.6831 17.1738 14.9276 16.6666 14.9419H13.4916C13.4923 16.2907 12.423 17.397 11.0749 17.4419H4.16659C3.40371 17.4293 2.68836 17.069 2.2241 16.4635C1.75984 15.858 1.59749 15.0736 1.78326 14.3336L1.95826 13.5003C2.16175 12.3523 3.15087 11.51 4.31659 11.4919H10.9333C11.2286 11.139 11.6648 10.9346 12.1249 10.9336H16.5333C17.3116 10.9584 17.969 11.5189 18.1166 12.2836ZM16.6499 13.6836C16.7516 13.6798 16.8463 13.6309 16.9083 13.5503C17.0173 13.4403 17.0721 13.2878 17.0583 13.1336L16.9416 12.5586C16.919 12.3723 16.77 12.2268 16.5833 12.2086H12.1749C12.079 12.2092 11.9892 12.2557 11.9333 12.3336C11.6943 12.6088 11.3477 12.7669 10.9833 12.7669H4.36659C3.7961 12.7808 3.31808 13.2026 3.23326 13.7669L3.05826 14.6003C2.97278 15.0107 3.07348 15.4379 3.33326 15.7669C3.53617 16.0228 3.84029 16.1779 4.16659 16.1919H11.0499C11.7206 16.1474 12.236 15.5805 12.2166 14.9086C12.2302 14.228 12.7859 13.6835 13.4666 13.6836H16.6499Z" fill="#0C111D"/>
<path fill-rule="evenodd" clip-rule="evenodd" d="M10.9166 6.66693C10.9166 8.50788 9.42421 10.0003 7.58326 10.0003C5.74231 10.0003 4.24992 8.50788 4.24992 6.66693V5.35859C4.24992 3.8122 5.50353 2.55859 7.04992 2.55859H8.14159C9.67822 2.57231 10.9167 3.82191 10.9166 5.35859V6.66693ZM7.04992 3.80859C6.19388 3.80859 5.49992 4.50255 5.49992 5.35859L5.52492 6.66693C5.65792 7.71624 6.55055 8.50288 7.60826 8.50288C8.66596 8.50288 9.5586 7.71624 9.69159 6.66693V5.35859C9.69159 4.50255 8.99763 3.80859 8.14159 3.80859H7.04992Z" fill="#0C111D"/>
<path fill-rule="evenodd" clip-rule="evenodd" d="M17.2333 6.87526C17.2333 8.25597 16.114 9.37526 14.7333 9.37526C13.3525 9.37526 12.2333 8.25597 12.2333 6.87526V5.91693C12.2331 4.77002 13.1532 3.83513 14.2999 3.81693H15.1333C16.2931 3.81693 17.2333 4.75713 17.2333 5.91693V6.87526ZM14.3166 5.08359C13.8564 5.08359 13.4833 5.45669 13.4833 5.91693V6.87526C13.4833 7.56562 14.0429 8.12526 14.7333 8.12526C15.4236 8.12526 15.9833 7.56562 15.9833 6.87526V5.91693C15.9833 5.45669 15.6102 5.08359 15.1499 5.08359H14.3166Z" fill="#0C111D"/>
</svg>
