<svg width="40" height="40" viewBox="0 0 40 40" fill="none" xmlns="http://www.w3.org/2000/svg">
<path fill-rule="evenodd" clip-rule="evenodd" d="M31.6667 8.33757C32.9499 8.3108 34.1907 8.7973 35.1138 9.68909C36.0369 10.5809 36.5658 11.8042 36.5833 13.0876V26.9542C36.5571 28.2318 36.0243 29.4466 35.1021 30.3312C34.18 31.2158 32.9442 31.6977 31.6667 31.6709H18.3333C17.7734 33.0871 16.4062 34.0183 14.8833 34.0209H11.8167C10.2845 34.0227 8.90534 33.0923 8.33333 31.6709C5.68879 31.6894 3.52748 29.5654 3.5 26.9209V13.0876C3.52748 10.4431 5.68879 8.31906 8.33333 8.33757C8.90805 6.9552 10.253 6.04984 11.75 6.03757H14.8833C16.4073 6.01358 17.7901 6.92661 18.3667 8.33757H31.6667ZM6 13.0876V26.9209C6.04051 28.0409 6.88786 28.9659 8 29.1042V10.9042C6.88786 11.0426 6.04051 11.9676 6 13.0876ZM16.1333 30.2542C16.1333 30.9446 15.5737 31.5042 14.8833 31.5042H11.75C11.4171 31.5088 11.0965 31.3785 10.8611 31.1431C10.6257 30.9077 10.4955 30.5871 10.5 30.2542V9.78757C10.4955 9.45468 10.6257 9.1341 10.8611 8.89869C11.0965 8.66328 11.4171 8.53304 11.75 8.53757H14.8833C15.5737 8.53757 16.1333 9.09721 16.1333 9.78757V30.2542ZM31.6667 29.1376C32.9145 29.1477 33.9462 28.1676 34 26.9209V13.0876C33.9817 11.8146 32.9397 10.7949 31.6667 10.8042H18.6333V29.1376H31.6667Z" fill="#0C111D"/>
<path d="M31.4 13.5542H20.8167C20.1263 13.5542 19.5667 14.1139 19.5667 14.8042C19.5667 15.4946 20.1263 16.0542 20.8167 16.0542H31.4C32.0904 16.0542 32.65 15.4946 32.65 14.8042C32.65 14.1139 32.0904 13.5542 31.4 13.5542Z" fill="#0C111D"/>
<path d="M22.8167 20.0042C22.8167 20.6394 22.3018 21.1542 21.6667 21.1542C21.0315 21.1542 20.5167 20.6394 20.5167 20.0042C20.5167 19.3691 21.0315 18.8542 21.6667 18.8542C22.3018 18.8542 22.8167 19.3691 22.8167 20.0042Z" fill="#0C111D"/>
<path d="M22.8167 25.2042C22.8167 25.8394 22.3018 26.3542 21.6667 26.3542C21.0315 26.3542 20.5167 25.8394 20.5167 25.2042C20.5167 24.5691 21.0315 24.0542 21.6667 24.0542C22.3018 24.0542 22.8167 24.5691 22.8167 25.2042Z" fill="#0C111D"/>
<path d="M26.1 18.8542C25.4671 18.8634 24.9606 19.3823 24.9667 20.0152C24.9728 20.6481 25.4892 21.1571 26.1221 21.1541C26.7551 21.1511 27.2666 20.6372 27.2667 20.0042C27.2667 19.6963 27.1433 19.4013 26.924 19.1851C26.7047 18.969 26.4079 18.8498 26.1 18.8542Z" fill="#0C111D"/>
<path d="M26.1 24.0376C25.6281 24.0376 25.2027 24.3218 25.0221 24.7578C24.8416 25.1937 24.9414 25.6955 25.275 26.0292C25.6087 26.3629 26.1105 26.4627 26.5465 26.2821C26.9824 26.1015 27.2667 25.6761 27.2667 25.2042C27.2712 24.8934 27.1497 24.5941 26.93 24.3743C26.7102 24.1545 26.4108 24.033 26.1 24.0376Z" fill="#0C111D"/>
<path d="M30.55 18.8542C30.0821 18.8407 29.6526 19.1121 29.4641 19.5406C29.2755 19.969 29.3655 20.469 29.6916 20.8049C30.0177 21.1407 30.5149 21.2454 30.9487 21.0695C31.3825 20.8936 31.6665 20.4724 31.6667 20.0042C31.6669 19.3819 31.1721 18.8723 30.55 18.8542Z" fill="#0C111D"/>
<path d="M30.55 24.0376C30.0767 24.0308 29.6462 24.3107 29.4603 24.7461C29.2745 25.1815 29.3701 25.686 29.7025 26.0231C30.0348 26.3602 30.5379 26.4632 30.9759 26.2836C31.4139 26.104 31.7 25.6776 31.7 25.2042C31.7045 24.8964 31.5853 24.5996 31.3691 24.3803C31.153 24.161 30.8579 24.0375 30.55 24.0376Z" fill="#0C111D"/>
</svg>
