<svg width="40" height="40" viewBox="0 0 40 40" fill="none" xmlns="http://www.w3.org/2000/svg">
<path fill-rule="evenodd" clip-rule="evenodd" d="M26.2495 9.05052C30.1168 11.2794 32.4998 15.4035 32.4995 19.8672C32.5058 24.3368 30.122 28.4687 26.2495 30.7005V35.5672C26.2495 37.2517 24.8839 38.6172 23.1995 38.6172H16.7995C15.115 38.6172 13.7495 37.2517 13.7495 35.5672V30.7005C9.86512 28.4765 7.46875 24.3431 7.46875 19.8672C7.46875 15.3912 9.86512 11.2578 13.7495 9.03385V4.16719C13.7495 2.48272 15.115 1.11719 16.7995 1.11719H23.1995C24.8839 1.11719 26.2495 2.48272 26.2495 4.16719V9.05052ZM16.7995 3.61719C16.4957 3.61719 16.2495 3.86343 16.2495 4.16719V7.93385C18.6923 7.17779 21.3066 7.17779 23.7495 7.93385V4.16719C23.7495 3.86343 23.5032 3.61719 23.1995 3.61719H16.7995ZM23.7495 35.5672C23.7495 35.8709 23.5032 36.1172 23.1995 36.1172H16.7995C16.4957 36.1172 16.2495 35.8709 16.2495 35.5672V31.8005C18.6923 32.5566 21.3066 32.5566 23.7495 31.8005V35.5672ZM9.99946 19.8672C9.99946 25.39 14.4766 29.8672 19.9995 29.8672C22.6516 29.8672 25.1952 28.8136 27.0705 26.9383C28.9459 25.0629 29.9995 22.5194 29.9995 19.8672C29.9995 14.3443 25.5223 9.86719 19.9995 9.86719C14.4766 9.86719 9.99946 14.3443 9.99946 19.8672Z" fill="#E31B54"/>
<path d="M19.7995 14.3172C19.6138 13.8949 19.2106 13.6091 18.7506 13.5739C18.2906 13.5387 17.8486 13.7597 17.6008 14.1488C17.353 14.5379 17.3397 15.0319 17.5661 15.4339L19.6661 19.6172L17.7995 21.4839C17.5612 21.716 17.4268 22.0345 17.4268 22.3672C17.4268 22.6998 17.5612 23.0184 17.7995 23.2505C18.0315 23.4882 18.3506 23.6207 18.6828 23.6172C19.0146 23.6188 19.333 23.4866 19.5661 23.2505L22.0661 20.7505C22.4419 20.3715 22.5357 19.7958 22.2995 19.3172L19.7995 14.3172Z" fill="#E31B54"/>
</svg>
